<mxfile host="65bd71144e">
    <diagram id="alUt72OySs_jfltP_hej" name="Page-1">
        <mxGraphModel dx="1114" dy="728" grid="1" gridSize="10" guides="1" tooltips="1" connect="1" arrows="1" fold="1" page="1" pageScale="1" pageWidth="3300" pageHeight="4681" background="#000000" math="0" shadow="0">
            <root>
                <mxCell id="0"/>
                <mxCell id="1" parent="0"/>
                <mxCell id="89" value="" style="whiteSpace=wrap;html=1;fontColor=#FFFFFF;fillColor=none;dashed=1;strokeColor=#3333FF;" parent="1" vertex="1">
                    <mxGeometry x="1620" y="625" width="1670" height="595" as="geometry"/>
                </mxCell>
                <mxCell id="95" value="" style="whiteSpace=wrap;html=1;fontColor=#FFFFFF;fillColor=none;dashed=1;strokeColor=#FF00FF;" parent="1" vertex="1">
                    <mxGeometry x="1620" y="60" width="1410" height="550" as="geometry"/>
                </mxCell>
                <mxCell id="92" value="" style="whiteSpace=wrap;html=1;fontColor=#FFFFFF;fillColor=none;dashed=1;strokeColor=#FF0000;" parent="1" vertex="1">
                    <mxGeometry x="940" y="370" width="650" height="255" as="geometry"/>
                </mxCell>
                <mxCell id="80" value="" style="whiteSpace=wrap;html=1;aspect=fixed;fontColor=#FFFFFF;fillColor=none;dashed=1;" parent="1" vertex="1">
                    <mxGeometry x="2360" y="185" width="240" height="240" as="geometry"/>
                </mxCell>
                <mxCell id="28" style="edgeStyle=elbowEdgeStyle;jumpSize=0;html=1;exitX=1;exitY=0.5;exitDx=0;exitDy=0;entryX=0;entryY=0.5;entryDx=0;entryDy=0;fontColor=#FFFFFF;strokeColor=#FFFFFF;strokeWidth=1;" parent="1" source="3" target="27" edge="1">
                    <mxGeometry relative="1" as="geometry"/>
                </mxCell>
                <mxCell id="3" value="TYPE: DEPENDENCY&lt;br&gt;&lt;br&gt;A: I've already received regulated financial advice&lt;br&gt;&lt;br&gt;B: I've decided I don't want to speak to PensionWise&lt;br&gt;&lt;br&gt;C: I've already received guidance from PensionWise before talking to you&lt;br&gt;&lt;br&gt;&lt;br&gt;Component: RadioGroup:&amp;nbsp;" style="rounded=0;whiteSpace=wrap;html=1;align=left;spacingLeft=8;" parent="1" vertex="1">
                    <mxGeometry x="1030" y="780" width="420" height="160" as="geometry"/>
                </mxCell>
                <mxCell id="99" style="edgeStyle=none;html=1;exitX=0.5;exitY=1;exitDx=0;exitDy=0;entryX=0.5;entryY=0.5;entryDx=0;entryDy=-15;entryPerimeter=0;" parent="1" source="5" target="98" edge="1">
                    <mxGeometry relative="1" as="geometry"/>
                </mxCell>
                <mxCell id="5" value="Continue to rest of risk &lt;br&gt;questions (3-15)" style="verticalLabelPosition=middle;verticalAlign=middle;html=1;shape=trapezoid;perimeter=trapezoidPerimeter;whiteSpace=wrap;size=0.23;arcSize=10;flipV=1;labelPosition=center;align=center;" parent="1" vertex="1">
                    <mxGeometry x="2400" y="1040" width="180" height="90" as="geometry"/>
                </mxCell>
                <mxCell id="12" style="edgeStyle=elbowEdgeStyle;html=1;entryX=0;entryY=0.5;entryDx=0;entryDy=0;" parent="1" source="11" target="3" edge="1">
                    <mxGeometry relative="1" as="geometry"/>
                </mxCell>
                <mxCell id="13" value="NO" style="edgeLabel;html=1;align=center;verticalAlign=middle;resizable=0;points=[];" parent="12" vertex="1" connectable="0">
                    <mxGeometry x="0.1518" relative="1" as="geometry">
                        <mxPoint as="offset"/>
                    </mxGeometry>
                </mxCell>
                <mxCell id="18" style="edgeStyle=elbowEdgeStyle;html=1;exitX=0.5;exitY=0;exitDx=0;exitDy=0;entryX=0;entryY=0.5;entryDx=0;entryDy=0;fontColor=#FFFFFF;" parent="1" source="11" target="14" edge="1">
                    <mxGeometry relative="1" as="geometry"/>
                </mxCell>
                <mxCell id="19" value="YES" style="edgeLabel;html=1;align=center;verticalAlign=middle;resizable=0;points=[];fontColor=#FFFFFF;" parent="18" vertex="1" connectable="0">
                    <mxGeometry x="0.1762" y="-1" relative="1" as="geometry">
                        <mxPoint as="offset"/>
                    </mxGeometry>
                </mxCell>
                <mxCell id="11" value="&lt;span&gt;Answer&lt;/span&gt;" style="rhombus;html=1;spacing=3;whiteSpace=wrap;spacingTop=0;spacingLeft=0;" parent="1" vertex="1">
                    <mxGeometry x="860" y="680" width="100" height="80" as="geometry"/>
                </mxCell>
                <mxCell id="17" style="edgeStyle=elbowEdgeStyle;html=1;entryX=0;entryY=0.5;entryDx=0;entryDy=0;entryPerimeter=0;fontColor=#FFFFFF;" parent="1" source="14" target="16" edge="1">
                    <mxGeometry relative="1" as="geometry"/>
                </mxCell>
                <mxCell id="14" value="BUTTON:&lt;br&gt;&lt;br&gt;onClick:&amp;nbsp; https://www.hl.co.uk/&lt;br/&gt;retirement/preparing/pension-wise&amp;nbsp;" style="rounded=0;whiteSpace=wrap;html=1;" parent="1" vertex="1">
                    <mxGeometry x="1080" y="485" width="310" height="80" as="geometry"/>
                </mxCell>
                <mxCell id="16" value="&lt;font color=&quot;#ffffff&quot;&gt;END&lt;/font&gt;" style="html=1;dashed=0;whitespace=wrap;shape=mxgraph.dfd.start;fontColor=#FF0000;" parent="1" vertex="1">
                    <mxGeometry x="1470" y="510" width="80" height="30" as="geometry"/>
                </mxCell>
                <mxCell id="24" style="edgeStyle=elbowEdgeStyle;jumpSize=0;html=1;exitX=1;exitY=0.5;exitDx=0;exitDy=0;entryX=0;entryY=0.5;entryDx=0;entryDy=0;fontColor=#FFFFFF;strokeColor=#FFFFFF;strokeWidth=1;" parent="1" source="23" target="11" edge="1">
                    <mxGeometry relative="1" as="geometry"/>
                </mxCell>
                <mxCell id="23" value="TYPE: QUESTION&lt;br&gt;&lt;span style=&quot;text-align: center&quot;&gt;Do you want guidance from PensionWise?&lt;br&gt;&lt;/span&gt;YES: Yes - I want guidance from PensionWise&lt;br&gt;NO: No - Please tell us more&lt;br&gt;&lt;br&gt;&lt;br&gt;Component: RadioGroup:&amp;nbsp;" style="rounded=0;whiteSpace=wrap;html=1;align=left;spacingLeft=8;" parent="1" vertex="1">
                    <mxGeometry x="500" y="640" width="290" height="160" as="geometry"/>
                </mxCell>
                <mxCell id="29" style="edgeStyle=elbowEdgeStyle;jumpSize=0;html=1;fontColor=#FFFFFF;strokeColor=#FFFFFF;strokeWidth=1;entryX=0;entryY=0.5;entryDx=0;entryDy=0;" parent="1" source="27" target="5" edge="1">
                    <mxGeometry relative="1" as="geometry">
                        <Array as="points">
                            <mxPoint x="1570" y="970"/>
                            <mxPoint x="1980" y="790"/>
                        </Array>
                    </mxGeometry>
                </mxCell>
                <mxCell id="30" value="OPTION A" style="edgeLabel;html=1;align=center;verticalAlign=middle;resizable=0;points=[];fontColor=#FFFFFF;" parent="29" vertex="1" connectable="0">
                    <mxGeometry x="0.192" y="4" relative="1" as="geometry">
                        <mxPoint x="-87" y="4" as="offset"/>
                    </mxGeometry>
                </mxCell>
                <mxCell id="68" style="edgeStyle=elbowEdgeStyle;jumpSize=0;html=1;exitX=1;exitY=0.5;exitDx=0;exitDy=0;entryX=0;entryY=0.25;entryDx=0;entryDy=0;fontColor=#FFFFFF;strokeColor=#FFFFFF;strokeWidth=1;" parent="1" source="27" target="32" edge="1">
                    <mxGeometry relative="1" as="geometry"/>
                </mxCell>
                <mxCell id="70" value="OPTION B" style="edgeLabel;html=1;align=center;verticalAlign=middle;resizable=0;points=[];fontColor=#FFFFFF;" parent="68" vertex="1" connectable="0">
                    <mxGeometry x="0.0761" relative="1" as="geometry">
                        <mxPoint y="11" as="offset"/>
                    </mxGeometry>
                </mxCell>
                <mxCell id="72" style="edgeStyle=elbowEdgeStyle;jumpSize=0;html=1;exitX=0.5;exitY=0;exitDx=0;exitDy=0;entryX=0;entryY=0.5;entryDx=0;entryDy=0;fontColor=#FFFFFF;strokeColor=#FFFFFF;strokeWidth=1;" parent="1" source="27" target="71" edge="1">
                    <mxGeometry relative="1" as="geometry">
                        <Array as="points">
                            <mxPoint x="1650" y="560"/>
                        </Array>
                    </mxGeometry>
                </mxCell>
                <mxCell id="73" value="OPTION C" style="edgeLabel;html=1;align=center;verticalAlign=middle;resizable=0;points=[];fontColor=#FFFFFF;" parent="72" vertex="1" connectable="0">
                    <mxGeometry x="0.7248" y="2" relative="1" as="geometry">
                        <mxPoint x="-29" y="432" as="offset"/>
                    </mxGeometry>
                </mxCell>
                <mxCell id="27" value="&lt;span&gt;Answer&lt;/span&gt;" style="rhombus;html=1;spacing=3;whiteSpace=wrap;spacingTop=0;spacingLeft=0;" parent="1" vertex="1">
                    <mxGeometry x="1510" y="820" width="100" height="80" as="geometry"/>
                </mxCell>
                <mxCell id="39" style="edgeStyle=elbowEdgeStyle;jumpSize=0;html=1;exitX=1;exitY=0.5;exitDx=0;exitDy=0;entryX=0;entryY=0.5;entryDx=0;entryDy=0;fontColor=#FF8000;strokeColor=#FFFFFF;strokeWidth=1;" parent="1" source="32" target="38" edge="1">
                    <mxGeometry relative="1" as="geometry"/>
                </mxCell>
                <mxCell id="32" value="TYPE: QUESTION&lt;br&gt;Existing Question: 2&lt;br&gt;Requires Modification: YES&amp;nbsp; - question wording&lt;br&gt;&lt;br&gt;Have you received personal advice from a regulated Financial Advisor?&lt;br&gt;&lt;br&gt;YES: Yes - I've received personalised advice&lt;br&gt;NO: No - I have not received personal advice&lt;br&gt;&lt;br&gt;&lt;br&gt;Component: RadioGroup" style="rounded=0;whiteSpace=wrap;html=1;align=left;spacingLeft=8;" parent="1" vertex="1">
                    <mxGeometry x="1850" y="705" width="420" height="160" as="geometry"/>
                </mxCell>
                <mxCell id="37" value="QUESTION: To confirm - are we maintaining the sections of the risk questons (Understanding your options, Your circumstances)" style="text;html=1;strokeColor=none;fillColor=none;align=center;verticalAlign=middle;whiteSpace=wrap;rounded=0;fontColor=#FF8000;" parent="1" vertex="1">
                    <mxGeometry x="1660" y="865" width="180" height="100" as="geometry"/>
                </mxCell>
                <mxCell id="40" style="edgeStyle=elbowEdgeStyle;jumpSize=0;html=1;exitX=0.5;exitY=1;exitDx=0;exitDy=0;entryX=0;entryY=0.25;entryDx=0;entryDy=0;fontColor=#FF8000;strokeColor=#FFFFFF;strokeWidth=1;" parent="1" source="38" target="5" edge="1">
                    <mxGeometry relative="1" as="geometry">
                        <Array as="points">
                            <mxPoint x="2350" y="1010"/>
                            <mxPoint x="2190" y="1260"/>
                            <mxPoint x="2290" y="1390"/>
                            <mxPoint x="2290" y="1370"/>
                            <mxPoint x="2250" y="1380"/>
                            <mxPoint x="2190" y="1360"/>
                            <mxPoint x="2190" y="980"/>
                        </Array>
                    </mxGeometry>
                </mxCell>
                <mxCell id="46" value="YES" style="edgeLabel;html=1;align=center;verticalAlign=middle;resizable=0;points=[];fontColor=#FFFFFF;" parent="40" vertex="1" connectable="0">
                    <mxGeometry x="-0.482" y="4" relative="1" as="geometry">
                        <mxPoint as="offset"/>
                    </mxGeometry>
                </mxCell>
                <mxCell id="48" style="edgeStyle=elbowEdgeStyle;jumpSize=0;html=1;exitX=1;exitY=0.5;exitDx=0;exitDy=0;entryX=0;entryY=0.5;entryDx=0;entryDy=0;fontColor=#FFFFFF;strokeColor=#FFFFFF;strokeWidth=1;" parent="1" source="38" target="45" edge="1">
                    <mxGeometry relative="1" as="geometry"/>
                </mxCell>
                <mxCell id="49" value="NO" style="edgeLabel;html=1;align=center;verticalAlign=middle;resizable=0;points=[];fontColor=#FFFFFF;" parent="48" vertex="1" connectable="0">
                    <mxGeometry x="-0.3143" relative="1" as="geometry">
                        <mxPoint as="offset"/>
                    </mxGeometry>
                </mxCell>
                <mxCell id="38" value="&lt;span&gt;Answer&lt;/span&gt;" style="rhombus;html=1;spacing=3;whiteSpace=wrap;spacingTop=0;spacingLeft=0;" parent="1" vertex="1">
                    <mxGeometry x="2300" y="745" width="100" height="80" as="geometry"/>
                </mxCell>
                <mxCell id="50" style="edgeStyle=elbowEdgeStyle;jumpSize=0;html=1;exitX=1;exitY=0.5;exitDx=0;exitDy=0;fontColor=#FFFFFF;strokeColor=#FFFFFF;strokeWidth=1;" parent="1" source="45" target="47" edge="1">
                    <mxGeometry relative="1" as="geometry"/>
                </mxCell>
                <mxCell id="45" value="TYPE: DEPENDENCY&lt;br&gt;&lt;br&gt;A: I'd like to learn more about HL's Advice service&lt;br&gt;&lt;br&gt;B: I don't want advice&lt;br&gt;&lt;br&gt;&lt;br&gt;Component: RadioGroup:&amp;nbsp;" style="rounded=0;whiteSpace=wrap;html=1;align=left;spacingLeft=8;" parent="1" vertex="1">
                    <mxGeometry x="2480" y="705" width="310" height="160" as="geometry"/>
                </mxCell>
                <mxCell id="54" style="edgeStyle=elbowEdgeStyle;jumpSize=0;html=1;exitX=1;exitY=0.5;exitDx=0;exitDy=0;entryX=0;entryY=0.5;entryDx=0;entryDy=0;fontColor=#FF0000;strokeColor=#FFFFFF;strokeWidth=1;" parent="1" source="47" target="53" edge="1">
                    <mxGeometry relative="1" as="geometry"/>
                </mxCell>
                <mxCell id="56" value="&lt;font color=&quot;#ffffff&quot;&gt;A&lt;/font&gt;" style="edgeLabel;html=1;align=center;verticalAlign=middle;resizable=0;points=[];fontColor=#FF0000;" parent="54" vertex="1" connectable="0">
                    <mxGeometry x="-0.3079" y="-1" relative="1" as="geometry">
                        <mxPoint x="19" y="-3" as="offset"/>
                    </mxGeometry>
                </mxCell>
                <mxCell id="59" style="edgeStyle=elbowEdgeStyle;jumpSize=0;html=1;exitX=0.5;exitY=1;exitDx=0;exitDy=0;fontColor=#FFFFFF;strokeColor=#FFFFFF;strokeWidth=1;" parent="1" source="47" target="5" edge="1">
                    <mxGeometry relative="1" as="geometry">
                        <Array as="points">
                            <mxPoint x="2910" y="910"/>
                            <mxPoint x="3000" y="1050"/>
                            <mxPoint x="2940" y="1080"/>
                            <mxPoint x="2760" y="1220"/>
                        </Array>
                    </mxGeometry>
                </mxCell>
                <mxCell id="60" value="B" style="edgeLabel;html=1;align=center;verticalAlign=middle;resizable=0;points=[];fontColor=#FFFFFF;" parent="59" vertex="1" connectable="0">
                    <mxGeometry x="0.1495" y="1" relative="1" as="geometry">
                        <mxPoint x="91" y="-136" as="offset"/>
                    </mxGeometry>
                </mxCell>
                <mxCell id="47" value="&lt;span&gt;Answer&lt;/span&gt;" style="rhombus;html=1;spacing=3;whiteSpace=wrap;spacingTop=0;spacingLeft=0;" parent="1" vertex="1">
                    <mxGeometry x="2860" y="745" width="100" height="80" as="geometry"/>
                </mxCell>
                <mxCell id="61" style="edgeStyle=elbowEdgeStyle;jumpSize=0;html=1;exitX=1;exitY=0.5;exitDx=0;exitDy=0;fontColor=#FFFFFF;strokeColor=#FFFFFF;strokeWidth=1;" parent="1" source="53" target="58" edge="1">
                    <mxGeometry relative="1" as="geometry"/>
                </mxCell>
                <mxCell id="53" value="BUTTON:&lt;br&gt;Label: Tell me more about HL advice&amp;nbsp;&lt;br&gt;&lt;br&gt;onClick:&amp;nbsp;&lt;font color=&quot;#ff0000&quot;&gt; AWAITING URL&amp;nbsp;&lt;/font&gt;" style="rounded=0;whiteSpace=wrap;html=1;" parent="1" vertex="1">
                    <mxGeometry x="3040" y="745" width="210" height="80" as="geometry"/>
                </mxCell>
                <mxCell id="58" value="&lt;font color=&quot;#ffffff&quot;&gt;END&lt;/font&gt;" style="html=1;dashed=0;whitespace=wrap;shape=mxgraph.dfd.start;fontColor=#FF0000;" parent="1" vertex="1">
                    <mxGeometry x="3080" y="900" width="80" height="30" as="geometry"/>
                </mxCell>
                <mxCell id="65" style="edgeStyle=elbowEdgeStyle;jumpSize=0;html=1;exitX=1;exitY=0.5;exitDx=0;exitDy=0;exitPerimeter=0;entryX=0;entryY=0.5;entryDx=0;entryDy=0;fontColor=#FFFFFF;strokeColor=#FFFFFF;strokeWidth=1;" parent="1" source="63" target="64" edge="1">
                    <mxGeometry relative="1" as="geometry"/>
                </mxCell>
                <mxCell id="63" value="&lt;font color=&quot;#ffffff&quot;&gt;START&lt;/font&gt;" style="html=1;dashed=0;whitespace=wrap;shape=mxgraph.dfd.start;fontColor=#FF0000;" parent="1" vertex="1">
                    <mxGeometry y="705" width="80" height="30" as="geometry"/>
                </mxCell>
                <mxCell id="66" style="edgeStyle=elbowEdgeStyle;jumpSize=0;html=1;exitX=1;exitY=0.5;exitDx=0;exitDy=0;entryX=0;entryY=0.5;entryDx=0;entryDy=0;fontColor=#FFFFFF;strokeColor=#FFFFFF;strokeWidth=1;" parent="1" source="64" target="23" edge="1">
                    <mxGeometry relative="1" as="geometry"/>
                </mxCell>
                <mxCell id="64" value="Existing drawdown &lt;br&gt;application process" style="verticalLabelPosition=middle;verticalAlign=middle;html=1;shape=trapezoid;perimeter=trapezoidPerimeter;whiteSpace=wrap;size=0.23;arcSize=10;flipV=1;labelPosition=center;align=center;" parent="1" vertex="1">
                    <mxGeometry x="140" y="675" width="220" height="90" as="geometry"/>
                </mxCell>
                <mxCell id="75" style="edgeStyle=elbowEdgeStyle;jumpSize=0;html=1;exitX=1;exitY=0.5;exitDx=0;exitDy=0;entryX=0;entryY=0.5;entryDx=0;entryDy=0;fontColor=#FFFFFF;strokeColor=#FFFFFF;strokeWidth=1;" parent="1" source="71" target="74" edge="1">
                    <mxGeometry relative="1" as="geometry"/>
                </mxCell>
                <mxCell id="71" value="TYPE: QUESTION&lt;br&gt;Have your circumstances changed since you received Pension Wise guidance?&lt;br&gt;&lt;br&gt;YES: Yes, my circumstances have changed&lt;br&gt;NO: No, my circumstances haven't changed&lt;br&gt;&lt;br&gt;&lt;br&gt;Component: RadioGroup:&amp;nbsp;" style="rounded=0;whiteSpace=wrap;html=1;align=left;spacingLeft=8;" parent="1" vertex="1">
                    <mxGeometry x="1780" y="225" width="290" height="160" as="geometry"/>
                </mxCell>
                <mxCell id="81" style="edgeStyle=elbowEdgeStyle;jumpSize=0;html=1;exitX=1;exitY=0.5;exitDx=0;exitDy=0;entryX=0;entryY=0.5;entryDx=0;entryDy=0;fontColor=#FFFFFF;strokeColor=#FFFFFF;strokeWidth=1;" parent="1" source="74" target="80" edge="1">
                    <mxGeometry relative="1" as="geometry"/>
                </mxCell>
                <mxCell id="82" value="YES or NO" style="edgeLabel;html=1;align=center;verticalAlign=middle;resizable=0;points=[];fontColor=#FFFFFF;" parent="81" vertex="1" connectable="0">
                    <mxGeometry x="-0.5745" y="4" relative="1" as="geometry">
                        <mxPoint x="24" y="4" as="offset"/>
                    </mxGeometry>
                </mxCell>
                <mxCell id="74" value="&lt;span&gt;Answer&lt;/span&gt;" style="rhombus;html=1;spacing=3;whiteSpace=wrap;spacingTop=0;spacingLeft=0;" parent="1" vertex="1">
                    <mxGeometry x="2140" y="265" width="100" height="80" as="geometry"/>
                </mxCell>
                <mxCell id="84" style="edgeStyle=elbowEdgeStyle;jumpSize=0;html=1;exitX=1;exitY=0.5;exitDx=0;exitDy=0;fontColor=#FF0000;strokeColor=#FFFFFF;strokeWidth=1;" parent="1" source="76" target="83" edge="1">
                    <mxGeometry relative="1" as="geometry"/>
                </mxCell>
                <mxCell id="85" value="&lt;font color=&quot;#ffffff&quot;&gt;BUTTON CLICK&lt;/font&gt;" style="edgeLabel;html=1;align=center;verticalAlign=middle;resizable=0;points=[];fontColor=#FF0000;" parent="84" vertex="1" connectable="0">
                    <mxGeometry x="0.0194" y="1" relative="1" as="geometry">
                        <mxPoint as="offset"/>
                    </mxGeometry>
                </mxCell>
                <mxCell id="76" value="BUTTON: HELP ME BOOK PENSIONWISE APPOINTMENT&lt;br&gt;" style="rounded=0;whiteSpace=wrap;html=1;" parent="1" vertex="1">
                    <mxGeometry x="2375" y="215" width="210" height="80" as="geometry"/>
                </mxCell>
                <mxCell id="87" style="edgeStyle=elbowEdgeStyle;jumpSize=0;html=1;exitX=1;exitY=0.5;exitDx=0;exitDy=0;entryX=0;entryY=0.5;entryDx=0;entryDy=0;fontColor=#FFFFFF;strokeColor=#FFFFFF;strokeWidth=1;" parent="1" source="77" target="86" edge="1">
                    <mxGeometry relative="1" as="geometry"/>
                </mxCell>
                <mxCell id="88" value="BUTTON CLICK" style="edgeLabel;html=1;align=center;verticalAlign=middle;resizable=0;points=[];fontColor=#FFFFFF;" parent="87" vertex="1" connectable="0">
                    <mxGeometry x="-0.109" y="1" relative="1" as="geometry">
                        <mxPoint as="offset"/>
                    </mxGeometry>
                </mxCell>
                <mxCell id="77" value="BUTTON: CONTINUE TO RISK QUESTIONS" style="rounded=0;whiteSpace=wrap;html=1;" parent="1" vertex="1">
                    <mxGeometry x="2375" y="315" width="210" height="80" as="geometry"/>
                </mxCell>
                <mxCell id="83" value="Change to&lt;br&gt;&lt;font color=&quot;#ff0000&quot;&gt;&amp;nbsp;PensionWise flow&lt;/font&gt;" style="verticalLabelPosition=middle;verticalAlign=middle;html=1;shape=trapezoid;perimeter=trapezoidPerimeter;whiteSpace=wrap;size=0.23;arcSize=10;flipV=1;labelPosition=center;align=center;" parent="1" vertex="1">
                    <mxGeometry x="2790" y="95" width="180" height="90" as="geometry"/>
                </mxCell>
                <mxCell id="86" value="Change to&lt;br&gt;&lt;font color=&quot;#0000ff&quot;&gt;Risk Questions&lt;/font&gt;" style="verticalLabelPosition=middle;verticalAlign=middle;html=1;shape=trapezoid;perimeter=trapezoidPerimeter;whiteSpace=wrap;size=0.23;arcSize=10;flipV=1;labelPosition=center;align=center;" parent="1" vertex="1">
                    <mxGeometry x="2820" y="475" width="180" height="90" as="geometry"/>
                </mxCell>
                <mxCell id="90" value="RISK QUESTIONS" style="text;html=1;align=center;verticalAlign=middle;resizable=0;points=[];autosize=1;strokeColor=none;fillColor=none;fontColor=#0000FF;fontStyle=1" parent="1" vertex="1">
                    <mxGeometry x="1630" y="630" width="120" height="20" as="geometry"/>
                </mxCell>
                <mxCell id="91" value="QUESTION: Where is existing question 1?" style="text;html=1;strokeColor=none;fillColor=none;align=center;verticalAlign=middle;whiteSpace=wrap;rounded=0;fontColor=#FF8000;" parent="1" vertex="1">
                    <mxGeometry x="1660" y="965" width="180" height="100" as="geometry"/>
                </mxCell>
                <mxCell id="94" value="&lt;font color=&quot;#ff0000&quot;&gt;PENSIONWISE FLOW&lt;/font&gt;" style="text;html=1;align=center;verticalAlign=middle;resizable=0;points=[];autosize=1;strokeColor=none;fillColor=none;fontColor=#0000FF;fontStyle=1" parent="1" vertex="1">
                    <mxGeometry x="941" y="375" width="140" height="20" as="geometry"/>
                </mxCell>
                <mxCell id="96" value="PERSONAL CIRCUMSTANCES FLOW" style="text;html=1;align=center;verticalAlign=middle;resizable=0;points=[];autosize=1;strokeColor=none;fillColor=none;fontColor=#FF00FF;fontStyle=1" parent="1" vertex="1">
                    <mxGeometry x="1630" y="70" width="230" height="20" as="geometry"/>
                </mxCell>
                <mxCell id="97" value="Is this a new question? Or a re-word of risk question 1?" style="text;html=1;strokeColor=none;fillColor=none;align=center;verticalAlign=middle;whiteSpace=wrap;rounded=0;fontColor=#FF8000;" parent="1" vertex="1">
                    <mxGeometry x="530" y="500" width="180" height="100" as="geometry"/>
                </mxCell>
                <mxCell id="98" value="&lt;font color=&quot;#ffffff&quot;&gt;END&lt;/font&gt;" style="html=1;dashed=0;whitespace=wrap;shape=mxgraph.dfd.start;fontColor=#FF0000;" parent="1" vertex="1">
                    <mxGeometry x="2450" y="1180" width="80" height="30" as="geometry"/>
                </mxCell>
                <mxCell id="100" value="How do I direct to these? dependency with that question ID?" style="shape=note;strokeWidth=2;fontSize=14;size=20;whiteSpace=wrap;html=1;fillColor=#fff2cc;strokeColor=#d6b656;fontColor=#666600;" parent="1" vertex="1">
                    <mxGeometry x="2980" y="450" width="110.00000000000001" height="80" as="geometry"/>
                </mxCell>
            </root>
        </mxGraphModel>
    </diagram>
</mxfile>